<svg id="Layer_1" data-name="Layer 1" xmlns="http://www.w3.org/2000/svg" viewBox="0 0 311.93 278.38"><defs><style>.cls-1{fill:#fff;}</style></defs><path class="cls-1" d="M323.68,426.77" transform="translate(-94.04 -95.77)"/><path class="cls-1" d="M239.43,343.67a20,20,0,0,1-17.26,30.13l-54,.17-54,.18a20,20,0,0,1-17.46-30l26.84-46.85,26.85-46.85a20,20,0,0,1,34.72-.11L212.28,297Z" transform="translate(-94.04 -95.77)"/><path class="cls-1" d="M403.22,343.67A20,20,0,0,1,386,373.8L332,374l-54,.18a20,20,0,0,1-17.46-30l26.85-46.85,26.84-46.85a20,20,0,0,1,34.72-.11L376.06,297Z" transform="translate(-94.04 -95.77)"/><path class="cls-1" d="M320.06,199.09a20,20,0,0,1-17.26,30.12l-54,.18-54,.18a20,20,0,0,1-17.46-30l26.84-46.86L231,105.85a20,20,0,0,1,34.72-.11l27.15,46.67Z" transform="translate(-94.04 -95.77)"/><path class="cls-1" d="M354.51,259.09l-68,39.24c22-43.43,10.93-67.67-39.76-68.88l68-39.24Z" transform="translate(-94.04 -95.77)"/></svg>