<svg id="Layer_1" data-name="Layer 1" xmlns="http://www.w3.org/2000/svg" viewBox="0 0 368.43 97.19"><defs><style>.cls-1,.cls-2{fill:#fff;}.cls-2{font-size:120.17px;font-family:Poppins-Medium, Poppins;font-weight:500;}</style></defs><path class="cls-1" d="M51.06,81.15a6,6,0,0,1-5.26,9.06l-16.46,1H12.88c-4.7-.76-7.66-5.84-5.32-9.92L15.74,67l8.19-14.28a6.11,6.11,0,0,1,10.58,0l8.27,14.22Z"/><path class="cls-1" d="M101,81.15a6,6,0,0,1-5.26,9.06l-16.46,1H62.8c-4.7-.76-7.66-5.84-5.32-9.92L65.66,67l8.18-14.28a6.11,6.11,0,0,1,10.59,0L92.7,66.92Z"/><path class="cls-1" d="M75.63,37.08a6.06,6.06,0,0,1-5.26,9.13l-16.46,1H37.46c-4.71-.82-7.66-5.9-5.32-10L40.32,23,48.5,8.67a6.11,6.11,0,0,1,10.58,0l8.28,14.23Z"/><path class="cls-1" d="M86.13,55.37l-20.71,12c6.7-13.24,3.33-20.62-12.12-21L74,34.38Z"/><text class="cls-2" transform="translate(105.49 90.44)">zeez</text></svg>