<svg id="Layer_1" data-name="Layer 1" xmlns="http://www.w3.org/2000/svg" viewBox="0 0 358.88 172.92"><defs><style>.cls-1{fill:#fff;}.cls-2,.cls-3{fill:#231f20;}.cls-3{font-size:121.69px;font-family:Poppins-Regular, Poppins;}</style></defs><path class="cls-1" d="M264.28,224" transform="translate(-6.4 13.89)"/><path class="cls-2" d="M50.71,81.13a6.1,6.1,0,0,1-5.26,9.18L29,90.37l-16.46,0a6.11,6.11,0,0,1-5.32-9.15L15.4,67l8.18-14.28a6.11,6.11,0,0,1,10.58,0l8.28,14.23Z" transform="translate(-6.4 13.89)"/><path class="cls-2" d="M100.63,81.13a6.11,6.11,0,0,1-5.26,9.18l-16.46.06-16.45,0a6.11,6.11,0,0,1-5.32-9.15L65.32,67,73.5,52.72a6.11,6.11,0,0,1,10.58,0l8.28,14.23Z" transform="translate(-6.4 13.89)"/><path class="cls-2" d="M75.29,37.06A6.12,6.12,0,0,1,70,46.25l-16.46,0-16.46.05a6.1,6.1,0,0,1-5.32-9.14L40,22.93,48.16,8.65a6.11,6.11,0,0,1,10.58,0L67,22.84Z" transform="translate(-6.4 13.89)"/><path class="cls-2" d="M85.79,55.35l-20.72,12c6.7-13.23,3.33-20.62-12.12-21l20.72-12Z" transform="translate(-6.4 13.89)"/><text class="cls-3" transform="translate(97.25 103.31)">zeez</text></svg>